{
    "asset" : {
        "generator" : "Khronos glTF Blender I/O v3.2.40",
        "version" : "2.0"
    },
    "extensionsUsed" : [
        "KHR_materials_unlit"
    ],
    "scene" : 0,
    "scenes" : [
        {
            "name" : "Scene",
            "nodes" : [
                0,
                1,
                2
            ]
        }
    ],
    "nodes" : [
        {
            "mesh" : 0,
            "name" : "Cube",
            "scale" : [
                2.1675631999969482,
                2.1675631999969482,
                2.1675631999969482
            ],
            "translation" : [
                0.035219863057136536,
                0.133338063955307,
                -1.7248108386993408
            ]
        },
        {
            "mesh" : 1,
            "name" : "Cube.002",
            "scale" : [
                2.1675631999969482,
                2.1675631999969482,
                2.1675631999969482
            ],
            "translation" : [
                0.035219863057136536,
                0.133338063955307,
                -1.7248108386993408
            ]
        },
        {
            "mesh" : 2,
            "name" : "Sphere",
            "rotation" : [
                0.7037061452865601,
                0.09079881757497787,
                -0.09144856035709381,
                0.6987062692642212
            ],
            "scale" : [
                -0.483201801776886,
                -0.4832017719745636,
                -0.4832018315792084
            ],
            "translation" : [
                0.9542272686958313,
                1.1538774967193604,
                -0.5550820827484131
            ]
        }
    ],
    "materials" : [
        {
            "doubleSided" : true,
            "name" : "Material.002",
            "pbrMetallicRoughness" : {
                "baseColorFactor" : [
                    0.8000000715255737,
                    0.32922089099884033,
                    0.14671912789344788,
                    1
                ],
                "metallicFactor" : 0,
                "roughnessFactor" : 0.5
            }
        },
        {
            "doubleSided" : true,
            "name" : "Material.004",
            "pbrMetallicRoughness" : {
                "baseColorFactor" : [
                    0.06071754917502403,
                    0.01923385076224804,
                    0.0033763227984309196,
                    1
                ],
                "metallicFactor" : 0,
                "roughnessFactor" : 0.5
            }
        },
        {
            "doubleSided" : true,
            "extensions" : {
                "KHR_materials_unlit" : {}
            },
            "name" : "eye",
            "pbrMetallicRoughness" : {
                "baseColorTexture" : {
                    "index" : 0,
                    "texCoord" : 0
                },
                "metallicFactor" : 0,
                "roughnessFactor" : 0.9
            }
        }
    ],
    "meshes" : [
        {
            "name" : "Cube.001",
            "primitives" : [
                {
                    "attributes" : {
                        "POSITION" : 0,
                        "NORMAL" : 1,
                        "TEXCOORD_0" : 2
                    },
                    "indices" : 3,
                    "material" : 0
                }
            ]
        },
        {
            "name" : "Cube.003",
            "primitives" : [
                {
                    "attributes" : {
                        "POSITION" : 4,
                        "NORMAL" : 5,
                        "TEXCOORD_0" : 6
                    },
                    "indices" : 7,
                    "material" : 1
                }
            ]
        },
        {
            "name" : "Sphere.002",
            "primitives" : [
                {
                    "attributes" : {
                        "POSITION" : 8,
                        "NORMAL" : 9,
                        "TEXCOORD_0" : 10
                    },
                    "indices" : 11,
                    "material" : 2
                }
            ]
        }
    ],
    "textures" : [
        {
            "sampler" : 0,
            "source" : 0
        }
    ],
    "images" : [
        {
            "bufferView" : 12,
            "mimeType" : "image/jpeg",
            "name" : "eye"
        }
    ],
    "accessors" : [
        {
            "bufferView" : 0,
            "componentType" : 5126,
            "count" : 298,
            "max" : [
                0.9753422737121582,
                1.6743861436843872,
                0.9847180247306824
            ],
            "min" : [
                -0.9753422737121582,
                -1.3334331512451172,
                -1.3609001636505127
            ],
            "type" : "VEC3"
        },
        {
            "bufferView" : 1,
            "componentType" : 5126,
            "count" : 298,
            "type" : "VEC3"
        },
        {
            "bufferView" : 2,
            "componentType" : 5126,
            "count" : 298,
            "type" : "VEC2"
        },
        {
            "bufferView" : 3,
            "componentType" : 5123,
            "count" : 474,
            "type" : "SCALAR"
        },
        {
            "bufferView" : 4,
            "componentType" : 5126,
            "count" : 144,
            "max" : [
                1.000426173210144,
                1.8040416240692139,
                0.8971454501152039
            ],
            "min" : [
                -1.000426173210144,
                0.6978853940963745,
                -1.5312491655349731
            ],
            "type" : "VEC3"
        },
        {
            "bufferView" : 5,
            "componentType" : 5126,
            "count" : 144,
            "type" : "VEC3"
        },
        {
            "bufferView" : 6,
            "componentType" : 5126,
            "count" : 144,
            "type" : "VEC2"
        },
        {
            "bufferView" : 7,
            "componentType" : 5123,
            "count" : 216,
            "type" : "SCALAR"
        },
        {
            "bufferView" : 8,
            "componentType" : 5126,
            "count" : 15876,
            "max" : [
                4.666059494018555,
                1.9639630317687988,
                0.9872307777404785
            ],
            "min" : [
                -0.9872304201126099,
                -0.9975767135620117,
                -0.9941558837890625
            ],
            "type" : "VEC3"
        },
        {
            "bufferView" : 9,
            "componentType" : 5126,
            "count" : 15876,
            "type" : "VEC3"
        },
        {
            "bufferView" : 10,
            "componentType" : 5126,
            "count" : 15876,
            "type" : "VEC2"
        },
        {
            "bufferView" : 11,
            "componentType" : 5123,
            "count" : 95232,
            "type" : "SCALAR"
        }
    ],
    "bufferViews" : [
        {
            "buffer" : 0,
            "byteLength" : 3576,
            "byteOffset" : 0
        },
        {
            "buffer" : 0,
            "byteLength" : 3576,
            "byteOffset" : 3576
        },
        {
            "buffer" : 0,
            "byteLength" : 2384,
            "byteOffset" : 7152
        },
        {
            "buffer" : 0,
            "byteLength" : 948,
            "byteOffset" : 9536
        },
        {
            "buffer" : 0,
            "byteLength" : 1728,
            "byteOffset" : 10484
        },
        {
            "buffer" : 0,
            "byteLength" : 1728,
            "byteOffset" : 12212
        },
        {
            "buffer" : 0,
            "byteLength" : 1152,
            "byteOffset" : 13940
        },
        {
            "buffer" : 0,
            "byteLength" : 432,
            "byteOffset" : 15092
        },
        {
            "buffer" : 0,
            "byteLength" : 190512,
            "byteOffset" : 15524
        },
        {
            "buffer" : 0,
            "byteLength" : 190512,
            "byteOffset" : 206036
        },
        {
            "buffer" : 0,
            "byteLength" : 127008,
            "byteOffset" : 396548
        },
        {
            "buffer" : 0,
            "byteLength" : 190464,
            "byteOffset" : 523556
        },
        {
            "buffer" : 0,
            "byteLength" : 63994,
            "byteOffset" : 714020
        }
    ],
    "samplers" : [
        {
            "magFilter" : 9729,
            "minFilter" : 9987
        }
    ],
    "buffers" : [
        {
            "byteLength" : 778016,
            "uri" : "data:application/octet-stream;base64,"
        }
    ]
}
