{
    "asset" : {
        "generator" : "Khronos glTF Blender I/O v3.2.40",
        "version" : "2.0"
    },
    "scene" : 0,
    "scenes" : [
        {
            "name" : "Scene",
            "nodes" : [
                0,
                1,
                2
            ]
        }
    ],
    "nodes" : [
        {
            "mesh" : 0,
            "name" : "FBHead.001",
            "rotation" : [
                -0.06435620039701462,
                0.026545539498329163,
                -0.3920225203037262,
                0.917317807674408
            ],
            "scale" : [
                0.3485736846923828,
                0.3485736846923828,
                0.3485736846923828
            ],
            "translation" : [
                0.5663991570472717,
                -0.6495513916015625,
                0.0934746265411377
            ]
        },
        {
            "mesh" : 1,
            "name" : "FBHead.002",
            "rotation" : [
                -0.05503598600625992,
                0.020053917542099953,
                -0.18200573325157166,
                0.9815512299537659
            ],
            "scale" : [
                0.13233138620853424,
                0.13233138620853424,
                0.13233137130737305
            ],
            "translation" : [
                0.8341374397277832,
                -0.2885468900203705,
                0.040227487683296204
            ]
        },
        {
            "mesh" : 2,
            "name" : "FBHead"
        }
    ],
    "materials" : [
        {
            "doubleSided" : true,
            "name" : "FBHead_preview_mat.001",
            "pbrMetallicRoughness" : {
                "baseColorTexture" : {
                    "index" : 0
                },
                "metallicFactor" : 0,
                "roughnessFactor" : 0.5
            }
        },
        {
            "doubleSided" : true,
            "name" : "FBHead_preview_mat.002",
            "pbrMetallicRoughness" : {
                "baseColorTexture" : {
                    "index" : 1
                },
                "metallicFactor" : 0,
                "roughnessFactor" : 0.5
            }
        },
        {
            "doubleSided" : true,
            "name" : "FBHead_preview_mat",
            "pbrMetallicRoughness" : {
                "baseColorTexture" : {
                    "index" : 2
                },
                "metallicFactor" : 0,
                "roughnessFactor" : 0.5
            }
        }
    ],
    "meshes" : [
        {
            "name" : "FBHead_mesh.001",
            "primitives" : [
                {
                    "attributes" : {
                        "POSITION" : 0,
                        "NORMAL" : 1,
                        "TEXCOORD_0" : 2
                    },
                    "indices" : 3,
                    "material" : 0
                }
            ]
        },
        {
            "name" : "FBHead_mesh.002",
            "primitives" : [
                {
                    "attributes" : {
                        "POSITION" : 4,
                        "NORMAL" : 5,
                        "TEXCOORD_0" : 6
                    },
                    "indices" : 3,
                    "material" : 1
                }
            ]
        },
        {
            "name" : "FBHead_mesh",
            "primitives" : [
                {
                    "attributes" : {
                        "POSITION" : 7,
                        "NORMAL" : 8,
                        "TEXCOORD_0" : 9
                    },
                    "indices" : 3,
                    "material" : 2
                }
            ]
        }
    ],
    "textures" : [
        {
            "sampler" : 0,
            "source" : 0
        },
        {
            "sampler" : 0,
            "source" : 0
        },
        {
            "sampler" : 0,
            "source" : 0
        }
    ],
    "images" : [
        {
            "bufferView" : 4,
            "mimeType" : "image/png",
            "name" : "FBHead_baked_tex"
        }
    ],
    "accessors" : [
        {
            "bufferView" : 0,
            "componentType" : 5126,
            "count" : 18097,
            "max" : [
                0.7373718023300171,
                1.1431525945663452,
                1.1333057880401611
            ],
            "min" : [
                -0.7907388806343079,
                -1.3158018589019775,
                -0.5742678046226501
            ],
            "type" : "VEC3"
        },
        {
            "bufferView" : 1,
            "componentType" : 5126,
            "count" : 18097,
            "type" : "VEC3"
        },
        {
            "bufferView" : 2,
            "componentType" : 5126,
            "count" : 18097,
            "type" : "VEC2"
        },
        {
            "bufferView" : 3,
            "componentType" : 5123,
            "count" : 107862,
            "type" : "SCALAR"
        },
        {
            "bufferView" : 5,
            "componentType" : 5126,
            "count" : 18097,
            "max" : [
                0.7373718023300171,
                1.1431525945663452,
                1.1333057880401611
            ],
            "min" : [
                -0.7907388806343079,
                -1.3158018589019775,
                -0.5742678046226501
            ],
            "type" : "VEC3"
        },
        {
            "bufferView" : 6,
            "componentType" : 5126,
            "count" : 18097,
            "type" : "VEC3"
        },
        {
            "bufferView" : 7,
            "componentType" : 5126,
            "count" : 18097,
            "type" : "VEC2"
        },
        {
            "bufferView" : 8,
            "componentType" : 5126,
            "count" : 18097,
            "max" : [
                0.7373718023300171,
                1.1431525945663452,
                1.1333057880401611
            ],
            "min" : [
                -0.7907388806343079,
                -1.3158018589019775,
                -0.5742678046226501
            ],
            "type" : "VEC3"
        },
        {
            "bufferView" : 9,
            "componentType" : 5126,
            "count" : 18097,
            "type" : "VEC3"
        },
        {
            "bufferView" : 10,
            "componentType" : 5126,
            "count" : 18097,
            "type" : "VEC2"
        }
    ],
    "bufferViews" : [
        {
            "buffer" : 0,
            "byteLength" : 217164,
            "byteOffset" : 0
        },
        {
            "buffer" : 0,
            "byteLength" : 217164,
            "byteOffset" : 217164
        },
        {
            "buffer" : 0,
            "byteLength" : 144776,
            "byteOffset" : 434328
        },
        {
            "buffer" : 0,
            "byteLength" : 215724,
            "byteOffset" : 579104
        },
        {
            "buffer" : 0,
            "byteLength" : 486479,
            "byteOffset" : 794828
        },
        {
            "buffer" : 0,
            "byteLength" : 217164,
            "byteOffset" : 1281308
        },
        {
            "buffer" : 0,
            "byteLength" : 217164,
            "byteOffset" : 1498472
        },
        {
            "buffer" : 0,
            "byteLength" : 144776,
            "byteOffset" : 1715636
        },
        {
            "buffer" : 0,
            "byteLength" : 217164,
            "byteOffset" : 1860412
        },
        {
            "buffer" : 0,
            "byteLength" : 217164,
            "byteOffset" : 2077576
        },
        {
            "buffer" : 0,
            "byteLength" : 144776,
            "byteOffset" : 2294740
        }
    ],
    "samplers" : [
        {
            "magFilter" : 9729,
            "minFilter" : 9987
        }
    ],
    "buffers" : [
        {
            "byteLength" : 2439516,
            "uri" : "data:application/octet-stream;base64,"
        }
    ]
}
