{
    "asset" : {
        "generator" : "Khronos glTF Blender I/O v3.2.40",
        "version" : "2.0"
    },
    "scene" : 0,
    "scenes" : [
        {
            "name" : "Scene",
            "nodes" : [
                0,
                1,
                2
            ]
        }
    ],
    "nodes" : [
        {
            "mesh" : 0,
            "name" : "Head",
            "scale" : [
                2.1675631999969482,
                2.1675631999969482,
                2.1675631999969482
            ],
            "translation" : [
                0.035219863057136536,
                0.133338063955307,
                -1.7248108386993408
            ]
        },
        {
            "mesh" : 1,
            "name" : "Eye",
            "scale" : [
                0.12981891632080078,
                0.12981891632080078,
                0.12981891632080078
            ],
            "translation" : [
                0.5986768007278442,
                1.1734936237335205,
                -0.24689149856567383
            ]
        },
        {
            "mesh" : 2,
            "name" : "Beard",
            "scale" : [
                2.1675631999969482,
                2.1675631999969482,
                2.1675631999969482
            ],
            "translation" : [
                0.035219863057136536,
                0.133338063955307,
                -1.7248108386993408
            ]
        }
    ],
    "materials" : [
        {
            "doubleSided" : true,
            "name" : "Material.002",
            "pbrMetallicRoughness" : {
                "baseColorFactor" : [
                    0.8000000715255737,
                    0.32922089099884033,
                    0.14671912789344788,
                    1
                ],
                "metallicFactor" : 0,
                "roughnessFactor" : 0.5
            }
        },
        {
            "emissiveFactor" : [
                0.08649975061416626,
                0.45078545808792114,
                0.5972020030021667
            ],
            "name" : "Material.001",
            "pbrMetallicRoughness" : {
                "baseColorFactor" : [
                    0,
                    0,
                    0,
                    1
                ]
            }
        },
        {
            "doubleSided" : true,
            "name" : "Material.006",
            "pbrMetallicRoughness" : {
                "baseColorFactor" : [
                    0,
                    0,
                    0,
                    1
                ],
                "metallicFactor" : 0,
                "roughnessFactor" : 0.5
            }
        },
        {
            "doubleSided" : true,
            "name" : "Material.004",
            "pbrMetallicRoughness" : {
                "baseColorFactor" : [
                    0.06071754917502403,
                    0.01923385076224804,
                    0.0033763227984309196,
                    1
                ],
                "metallicFactor" : 0,
                "roughnessFactor" : 0.5
            }
        }
    ],
    "meshes" : [
        {
            "name" : "Cube.004",
            "primitives" : [
                {
                    "attributes" : {
                        "POSITION" : 0,
                        "NORMAL" : 1,
                        "TEXCOORD_0" : 2
                    },
                    "indices" : 3,
                    "material" : 0
                },
                {
                    "attributes" : {
                        "POSITION" : 4,
                        "NORMAL" : 5,
                        "TEXCOORD_0" : 6
                    },
                    "indices" : 7,
                    "material" : 1
                }
            ]
        },
        {
            "name" : "Cube",
            "primitives" : [
                {
                    "attributes" : {
                        "POSITION" : 8,
                        "NORMAL" : 9,
                        "TEXCOORD_0" : 10
                    },
                    "indices" : 11,
                    "material" : 2
                }
            ]
        },
        {
            "name" : "Cube.005",
            "primitives" : [
                {
                    "attributes" : {
                        "POSITION" : 12,
                        "NORMAL" : 13,
                        "TEXCOORD_0" : 14
                    },
                    "indices" : 15,
                    "material" : 3
                }
            ]
        }
    ],
    "accessors" : [
        {
            "bufferView" : 0,
            "componentType" : 5126,
            "count" : 298,
            "max" : [
                0.9753422737121582,
                1.8157083988189697,
                1.1341848373413086
            ],
            "min" : [
                -0.9753422737121582,
                -1.3334331512451172,
                -1.3609001636505127
            ],
            "type" : "VEC3"
        },
        {
            "bufferView" : 1,
            "componentType" : 5126,
            "count" : 298,
            "type" : "VEC3"
        },
        {
            "bufferView" : 2,
            "componentType" : 5126,
            "count" : 298,
            "type" : "VEC2"
        },
        {
            "bufferView" : 3,
            "componentType" : 5123,
            "count" : 474,
            "type" : "SCALAR"
        },
        {
            "bufferView" : 4,
            "componentType" : 5126,
            "count" : 302,
            "max" : [
                1.0035431385040283,
                1.8556909561157227,
                1.1731986999511719
            ],
            "min" : [
                -1.0035431385040283,
                -1.3715977668762207,
                -1.4008984565734863
            ],
            "type" : "VEC3"
        },
        {
            "bufferView" : 5,
            "componentType" : 5126,
            "count" : 302,
            "type" : "VEC3"
        },
        {
            "bufferView" : 6,
            "componentType" : 5126,
            "count" : 302,
            "type" : "VEC2"
        },
        {
            "bufferView" : 7,
            "componentType" : 5123,
            "count" : 474,
            "type" : "SCALAR"
        },
        {
            "bufferView" : 8,
            "componentType" : 5126,
            "count" : 48,
            "max" : [
                1,
                1,
                1.0000009536743164
            ],
            "min" : [
                -9.680660247802734,
                -1,
                -1
            ],
            "type" : "VEC3"
        },
        {
            "bufferView" : 9,
            "componentType" : 5126,
            "count" : 48,
            "type" : "VEC3"
        },
        {
            "bufferView" : 10,
            "componentType" : 5126,
            "count" : 48,
            "type" : "VEC2"
        },
        {
            "bufferView" : 11,
            "componentType" : 5123,
            "count" : 72,
            "type" : "SCALAR"
        },
        {
            "bufferView" : 12,
            "componentType" : 5126,
            "count" : 236,
            "max" : [
                0.962781548500061,
                0.18757887184619904,
                0.8221220970153809
            ],
            "min" : [
                -0.962781548500061,
                -1.3734266757965088,
                -0.23838761448860168
            ],
            "type" : "VEC3"
        },
        {
            "bufferView" : 13,
            "componentType" : 5126,
            "count" : 236,
            "type" : "VEC3"
        },
        {
            "bufferView" : 14,
            "componentType" : 5126,
            "count" : 236,
            "type" : "VEC2"
        },
        {
            "bufferView" : 15,
            "componentType" : 5123,
            "count" : 396,
            "type" : "SCALAR"
        }
    ],
    "bufferViews" : [
        {
            "buffer" : 0,
            "byteLength" : 3576,
            "byteOffset" : 0
        },
        {
            "buffer" : 0,
            "byteLength" : 3576,
            "byteOffset" : 3576
        },
        {
            "buffer" : 0,
            "byteLength" : 2384,
            "byteOffset" : 7152
        },
        {
            "buffer" : 0,
            "byteLength" : 948,
            "byteOffset" : 9536
        },
        {
            "buffer" : 0,
            "byteLength" : 3624,
            "byteOffset" : 10484
        },
        {
            "buffer" : 0,
            "byteLength" : 3624,
            "byteOffset" : 14108
        },
        {
            "buffer" : 0,
            "byteLength" : 2416,
            "byteOffset" : 17732
        },
        {
            "buffer" : 0,
            "byteLength" : 948,
            "byteOffset" : 20148
        },
        {
            "buffer" : 0,
            "byteLength" : 576,
            "byteOffset" : 21096
        },
        {
            "buffer" : 0,
            "byteLength" : 576,
            "byteOffset" : 21672
        },
        {
            "buffer" : 0,
            "byteLength" : 384,
            "byteOffset" : 22248
        },
        {
            "buffer" : 0,
            "byteLength" : 144,
            "byteOffset" : 22632
        },
        {
            "buffer" : 0,
            "byteLength" : 2832,
            "byteOffset" : 22776
        },
        {
            "buffer" : 0,
            "byteLength" : 2832,
            "byteOffset" : 25608
        },
        {
            "buffer" : 0,
            "byteLength" : 1888,
            "byteOffset" : 28440
        },
        {
            "buffer" : 0,
            "byteLength" : 792,
            "byteOffset" : 30328
        }
    ],
    "buffers" : [
        {
            "byteLength" : 31120,
            "uri" : "data:application/octet-stream;base64,"
        }
    ]
}
