{
    "asset" : {
        "generator" : "Khronos glTF Blender I/O v3.2.40",
        "version" : "2.0"
    },
    "extensionsUsed" : [
        "KHR_materials_unlit"
    ],
    "scene" : 0,
    "scenes" : [
        {
            "name" : "Scene",
            "nodes" : [
                0,
                1
            ]
        }
    ],
    "nodes" : [
        {
            "mesh" : 0,
            "name" : "Sphere",
            "rotation" : [
                0.7037061452865601,
                0.09079881757497787,
                -0.09144856035709381,
                0.6987062692642212
            ],
            "scale" : [
                -0.483201801776886,
                -0.4832017719745636,
                -0.4832018315792084
            ],
            "translation" : [
                0.9542272686958313,
                1.1538774967193604,
                -0.5550820827484131
            ]
        },
        {
            "mesh" : 1,
            "name" : "Cube.001",
            "scale" : [
                2.1675631999969482,
                2.1675631999969482,
                2.1675631999969482
            ],
            "translation" : [
                0.035219863057136536,
                0.133338063955307,
                -1.7248108386993408
            ]
        }
    ],
    "materials" : [
        {
            "doubleSided" : true,
            "extensions" : {
                "KHR_materials_unlit" : {}
            },
            "name" : "eye",
            "pbrMetallicRoughness" : {
                "baseColorTexture" : {
                    "index" : 0,
                    "texCoord" : 0
                },
                "metallicFactor" : 0,
                "roughnessFactor" : 0.9
            }
        },
        {
            "doubleSided" : true,
            "name" : "Material.002",
            "pbrMetallicRoughness" : {
                "baseColorFactor" : [
                    0.8000000715255737,
                    0.32922089099884033,
                    0.14671912789344788,
                    1
                ],
                "metallicFactor" : 0,
                "roughnessFactor" : 0.5
            }
        },
        {
            "emissiveFactor" : [
                0.08649975061416626,
                0.45078545808792114,
                0.5972020030021667
            ],
            "name" : "Material.001",
            "pbrMetallicRoughness" : {
                "baseColorFactor" : [
                    0,
                    0,
                    0,
                    1
                ]
            }
        }
    ],
    "meshes" : [
        {
            "name" : "Sphere.002",
            "primitives" : [
                {
                    "attributes" : {
                        "POSITION" : 0,
                        "NORMAL" : 1,
                        "TEXCOORD_0" : 2
                    },
                    "indices" : 3,
                    "material" : 0
                }
            ]
        },
        {
            "name" : "Cube.004",
            "primitives" : [
                {
                    "attributes" : {
                        "POSITION" : 4,
                        "NORMAL" : 5,
                        "TEXCOORD_0" : 6
                    },
                    "indices" : 7,
                    "material" : 1
                },
                {
                    "attributes" : {
                        "POSITION" : 8,
                        "NORMAL" : 9,
                        "TEXCOORD_0" : 10
                    },
                    "indices" : 11,
                    "material" : 2
                }
            ]
        }
    ],
    "textures" : [
        {
            "sampler" : 0,
            "source" : 0
        }
    ],
    "images" : [
        {
            "bufferView" : 4,
            "mimeType" : "image/jpeg",
            "name" : "eye"
        }
    ],
    "accessors" : [
        {
            "bufferView" : 0,
            "componentType" : 5126,
            "count" : 15876,
            "max" : [
                3.9686408042907715,
                1.2600799798965454,
                0.29276949167251587
            ],
            "min" : [
                -0.29276883602142334,
                -0.2836793065071106,
                -0.29969900846481323
            ],
            "type" : "VEC3"
        },
        {
            "bufferView" : 1,
            "componentType" : 5126,
            "count" : 15876,
            "type" : "VEC3"
        },
        {
            "bufferView" : 2,
            "componentType" : 5126,
            "count" : 15876,
            "type" : "VEC2"
        },
        {
            "bufferView" : 3,
            "componentType" : 5123,
            "count" : 95232,
            "type" : "SCALAR"
        },
        {
            "bufferView" : 5,
            "componentType" : 5126,
            "count" : 298,
            "max" : [
                0.9753422737121582,
                1.6743861436843872,
                0.9847180247306824
            ],
            "min" : [
                -0.9753422737121582,
                -1.3334331512451172,
                -1.3609001636505127
            ],
            "type" : "VEC3"
        },
        {
            "bufferView" : 6,
            "componentType" : 5126,
            "count" : 298,
            "type" : "VEC3"
        },
        {
            "bufferView" : 7,
            "componentType" : 5126,
            "count" : 298,
            "type" : "VEC2"
        },
        {
            "bufferView" : 8,
            "componentType" : 5123,
            "count" : 474,
            "type" : "SCALAR"
        },
        {
            "bufferView" : 9,
            "componentType" : 5126,
            "count" : 302,
            "max" : [
                1.0035431385040283,
                1.714280128479004,
                1.021600365638733
            ],
            "min" : [
                -1.0035431385040283,
                -1.3715977668762207,
                -1.4008984565734863
            ],
            "type" : "VEC3"
        },
        {
            "bufferView" : 10,
            "componentType" : 5126,
            "count" : 302,
            "type" : "VEC3"
        },
        {
            "bufferView" : 11,
            "componentType" : 5126,
            "count" : 302,
            "type" : "VEC2"
        },
        {
            "bufferView" : 12,
            "componentType" : 5123,
            "count" : 474,
            "type" : "SCALAR"
        }
    ],
    "bufferViews" : [
        {
            "buffer" : 0,
            "byteLength" : 190512,
            "byteOffset" : 0
        },
        {
            "buffer" : 0,
            "byteLength" : 190512,
            "byteOffset" : 190512
        },
        {
            "buffer" : 0,
            "byteLength" : 127008,
            "byteOffset" : 381024
        },
        {
            "buffer" : 0,
            "byteLength" : 190464,
            "byteOffset" : 508032
        },
        {
            "buffer" : 0,
            "byteLength" : 63994,
            "byteOffset" : 698496
        },
        {
            "buffer" : 0,
            "byteLength" : 3576,
            "byteOffset" : 762492
        },
        {
            "buffer" : 0,
            "byteLength" : 3576,
            "byteOffset" : 766068
        },
        {
            "buffer" : 0,
            "byteLength" : 2384,
            "byteOffset" : 769644
        },
        {
            "buffer" : 0,
            "byteLength" : 948,
            "byteOffset" : 772028
        },
        {
            "buffer" : 0,
            "byteLength" : 3624,
            "byteOffset" : 772976
        },
        {
            "buffer" : 0,
            "byteLength" : 3624,
            "byteOffset" : 776600
        },
        {
            "buffer" : 0,
            "byteLength" : 2416,
            "byteOffset" : 780224
        },
        {
            "buffer" : 0,
            "byteLength" : 948,
            "byteOffset" : 782640
        }
    ],
    "samplers" : [
        {
            "magFilter" : 9729,
            "minFilter" : 9987
        }
    ],
    "buffers" : [
        {
            "byteLength" : 783588,
            "uri" : "data:application/octet-stream;base64,"
        }
    ]
}
